<svg xmlns="http://www.w3.org/2000/svg" viewBox="0 0 64 64"><circle cx="32" cy="32" r="29" fill="#D9912A" stroke="#ffffff" stroke-width="3"/>
<g fill="#ffffff">
<rect x="20" y="24" width="18" height="24" rx="3"/>
<path d="M38 28 h4 a5 5 0 0 1 5 5 v5 a5 5 0 0 1 -5 5 h-4 v-4 h4 a1.5 1.5 0 0 0 1.5 -1.5 v-4 a1.5 1.5 0 0 0 -1.5 -1.5 h-4 z"/>
<circle cx="23" cy="21" r="4.5"/><circle cx="30" cy="18.5" r="5.5"/><circle cx="36.5" cy="21.5" r="4"/>
</g>
<g stroke="#D9912A" stroke-width="2.5"><line x1="25" y1="30" x2="25" y2="44"/><line x1="33" y1="30" x2="33" y2="44"/></g></svg>